<svg id="Capa_1" data-name="Capa 1" xmlns="http://www.w3.org/2000/svg" viewBox="0 0 1118 120"><defs><style>.cls-1{fill:#fff;}.cls-2{opacity:0.5;}</style></defs><title>Mesa de trabajo 1</title><path class="cls-1" d="M363.49,120A60,60,0,0,1,340.14,4.72a60,60,0,0,1,46.71,110.57A59.62,59.62,0,0,1,363.49,120Zm0-118.83A58.83,58.83,0,1,0,422.33,60,58.9,58.9,0,0,0,363.49,1.17Z"/><g class="cls-2"><path class="cls-1" d="M330.12,84.43l57.81-57.81-.09-.07L330.05,84.34Z"/><path class="cls-1" d="M329.44,83.47,387,25.94l-.1-.07-57.5,57.5Z"/><path class="cls-1" d="M328.77,82.48,386,25.28l-.1-.06L328.71,82.38Z"/><path class="cls-1" d="M328.14,81.47,385,24.64l-.1-.06L328.08,81.37Z"/><path class="cls-1" d="M327.53,80.43,383.93,24l-.11-.06L327.47,80.33Z"/><path class="cls-1" d="M326.94,79.37l55.92-55.92-.11-.06L326.89,79.26Z"/><path class="cls-1" d="M326.39,78.28l55.39-55.39-.11-.05L326.33,78.17Z"/><path class="cls-1" d="M332.32,87.18l58.35-58.35-.09-.08L332.24,87.09Z"/><path class="cls-1" d="M331.56,86.29l58.22-58.22-.09-.07-58.2,58.2Z"/><path class="cls-1" d="M330.83,85.37l58-58-.09-.07-58,58Z"/><path class="cls-1" d="M325.85,77.17l54.8-54.8-.11-.05L325.8,77.05Z"/><path class="cls-1" d="M325.35,76l54.16-54.16-.12,0L325.3,75.9Z"/><path class="cls-1" d="M324.88,74.84l53.46-53.46-.12,0L324.83,74.73Z"/><path class="cls-1" d="M324.44,73.64l52.7-52.7-.12,0L324.39,73.52Z"/><path class="cls-1" d="M324,72.4,375.9,20.53l-.13,0L324,72.28Z"/><path class="cls-1" d="M323.65,71.13l51-51-.13,0L323.61,71Z"/><path class="cls-1" d="M323.31,69.82l50-50-.13,0L323.28,69.69Z"/><path class="cls-1" d="M323,68.48l49-49-.14,0L323,68.34Z"/><path class="cls-1" d="M322.74,67.1l47.85-47.85-.14,0L322.72,67Z"/><path class="cls-1" d="M322.52,65.67,369.16,19,369,19,322.5,65.52Z"/><path class="cls-1" d="M322.35,64.2l45.35-45.35h-.15L322.33,64Z"/><path class="cls-1" d="M322.22,62.67l43.95-43.95H366l-43.8,43.8Z"/><path class="cls-1" d="M322.15,61.1l42.44-42.44h-.16L322.15,60.94C322.15,61,322.15,61,322.15,61.1Z"/><path class="cls-1" d="M322.14,59.46,363,18.64h-.17L322.14,59.29C322.14,59.35,322.14,59.4,322.14,59.46Z"/><path class="cls-1" d="M322.2,57.76,361.25,18.7h-.17L322.21,57.58Z"/><path class="cls-1" d="M322.33,56l37.14-37.14-.18,0L322.35,55.79Z"/><path class="cls-1" d="M322.55,54.1l35-35-.19,0L322.58,53.91Z"/><path class="cls-1" d="M322.88,52.12l32.73-32.73-.21,0L322.92,51.92Z"/><path class="cls-1" d="M323.35,50,353.5,19.86l-.22.06L323.4,49.79Z"/><path class="cls-1" d="M324,47.73l27.23-27.23-.24.08L324.06,47.49Z"/><path class="cls-1" d="M324.86,45.2,348.7,21.37l-.27.1L325,44.94Z"/><path class="cls-1" d="M326.09,42.33,345.82,22.6l-.32.15L326.24,42Z"/><path class="cls-1" d="M328,38.79l14.3-14.3-.42.25L328.24,38.37Z"/><path class="cls-1" d="M334.73,89.71l58.48-58.48-.08-.08L334.64,89.63Z"/><path class="cls-1" d="M335.57,90.51,394,32.08l-.08-.09L335.49,90.43Z"/><path class="cls-1" d="M336.45,91.29,394.78,33l-.08-.09L336.36,91.21Z"/><path class="cls-1" d="M337.34,92l58.19-58.19-.07-.09L337.25,92Z"/><path class="cls-1" d="M338.26,92.77l58-58-.07-.09-58,58Z"/><path class="cls-1" d="M339.2,93.48,397,35.71l-.07-.1L339.11,93.41Z"/><path class="cls-1" d="M340.17,94.16l57.48-57.48-.07-.1L340.07,94.09Z"/><path class="cls-1" d="M341.16,94.82l57.15-57.15-.06-.1L341.06,94.75Z"/><path class="cls-1" d="M342.17,95.45l56.77-56.77-.06-.1L342.07,95.39Z"/><path class="cls-1" d="M343.22,96.05l56.33-56.33-.06-.11L343.11,96Z"/><path class="cls-1" d="M344.28,96.64l55.85-55.85-.06-.11-55.9,55.9Z"/><path class="cls-1" d="M345.38,97.19l55.31-55.31-.05-.11L345.27,97.14Z"/><path class="cls-1" d="M346.5,97.72,401.21,43l-.05-.11L346.38,97.66Z"/><path class="cls-1" d="M347.65,98.21l54.06-54.06,0-.12L347.53,98.17Z"/><path class="cls-1" d="M348.83,98.68l53.35-53.35,0-.12L348.71,98.64Z"/><path class="cls-1" d="M350,99.12l52.58-52.58,0-.12L349.91,99.08Z"/><path class="cls-1" d="M351.28,99.53,403,47.78l0-.13L351.15,99.49Z"/><path class="cls-1" d="M352.56,99.9l50.84-50.84,0-.13L352.43,99.86Z"/><path class="cls-1" d="M353.87,100.23l49.86-49.86,0-.13-50,50Z"/><path class="cls-1" d="M355.22,100.53,404,51.72l0-.14L355.08,100.5Z"/><path class="cls-1" d="M356.61,100.79l47.68-47.68,0-.14-47.79,47.79Z"/><path class="cls-1" d="M358,101,404.5,54.55l0-.15L357.9,101Z"/><path class="cls-1" d="M359.52,101.17,404.66,56v-.15l-45.28,45.28Z"/><path class="cls-1" d="M361.05,101.29l43.73-43.73V57.4l-43.88,43.88Z"/><path class="cls-1" d="M362.64,101.35l42.21-42.21c0-.05,0-.11,0-.16l-42.37,42.37Z"/><path class="cls-1" d="M364.28,101.35l40.56-40.56c0-.06,0-.11,0-.17l-40.73,40.73Z"/><path class="cls-1" d="M366,101.28,404.78,62.5v-.17l-39,39Z"/><path class="cls-1" d="M367.79,101.14,404.63,64.3l0-.18-37,37Z"/><path class="cls-1" d="M369.68,100.9l34.72-34.72,0-.19-34.94,34.94Z"/><path class="cls-1" d="M371.67,100.55,404,68.18l0-.21-32.61,32.61Z"/><path class="cls-1" d="M373.81,100.06l29.75-29.75.06-.22-30,30Z"/><path class="cls-1" d="M376.13,99.39l26.76-26.76.08-.24L375.88,99.47Z"/><path class="cls-1" d="M378.69,98.48,402,75.2l.1-.27L378.42,98.58Z"/><path class="cls-1" d="M381.64,97.18l19-19,.15-.32-19.5,19.5Z"/><path class="cls-1" d="M385.33,95.13l13.29-13.29.26-.43-14,14Z"/><path class="cls-1" d="M393.79,88.16l-2.13,2.13Q392.76,89.26,393.79,88.16Z"/><path class="cls-1" d="M333.9,88.89l58.49-58.49-.08-.08L333.82,88.81Z"/><path class="cls-1" d="M333.1,88,391.54,29.6l-.09-.08L333,88Z"/></g><path class="cls-1" d="M336.17,29a41.62,41.62,0,0,0-3.72,3.72Z"/><path class="cls-1" d="M363.49,101.94a41.81,41.81,0,1,1,16.33-3.3A41.68,41.68,0,0,1,363.49,101.94Zm0-82.72A40.78,40.78,0,1,0,404.27,60,40.82,40.82,0,0,0,363.49,19.22Z"/><path class="cls-1" d="M392.3,42.2a.54.54,0,0,0-.56.34c-.19.47-.44.55-.81.18s-1.28-.42-1.76-.93c-.24.27,0,.49,0,.71l-1.28.25c.2.29.49.36.66.59s.07.4,0,.59-.27.06-.41.06a3.56,3.56,0,0,0-2.09.9,1.11,1.11,0,0,1-1,.31,2.27,2.27,0,0,0-2.43.9c-.07.13-.19.24-.1.41a1.69,1.69,0,0,1-.46,1.81c-.38.35-.53.91-.95,1.25-.2.16-.35.48-.62.42s-.2-.42-.24-.66a3.78,3.78,0,0,1,.22-2.24,2.14,2.14,0,0,1,.93-.81,4.89,4.89,0,0,0,1.79-1.81c.08-.14.14-.35-.07-.45a.32.32,0,0,0-.43.16,2.66,2.66,0,0,1-.44.47c-.14.13-.4.19-.45,0-.21-.78-.79-.31-1.08-.23a2.36,2.36,0,0,0-.94.81c-.12.14,0,.47-.3.51a2.26,2.26,0,0,1-1,0c-.06,0-.1-.08-.16-.11a7,7,0,0,0-3.56.62,13.21,13.21,0,0,1-1.52,1.41c-.15.11-.47.31-.29.49s.36.51.78.44c1.07-.19,1.25.1,1,1.16a7,7,0,0,1-2,3.55,1.17,1.17,0,0,1-1,.42.76.76,0,0,0-.79.44c-.19.34-.36.67-.8.76-.26.05-.14.27-.07.42a6.13,6.13,0,0,1,.39.82c.1.35.21.74-.25,1-.17.08-.35.2-.55.09a.45.45,0,0,1-.16-.58c.11-.38.2-.69-.35-.73a.21.21,0,0,1-.2-.22c0-.93-.34-.29-.59-.14-.54.34-.64,1.15-1.38,1.29-.16,0-.2.26-.06.44.47.61.37,1.41.71,2.07a.28.28,0,0,1,0,.25c-.59.67-.86,1.62-1.75,2a5,5,0,0,1-2.74.63c-.67-.09-1,.43-1.16.84s.13.77.52,1a1.45,1.45,0,0,1,0,2.47c-.79.61-.73.59-1.27-.24-.34-.51-.76-1.07-1.55-.93-.17,0-.15-.12-.19-.2s-.17-.45-.28-.65c-.2-.36-.41-.7-.82-.16-.29.38-.52.05-.48-.18.21-1-.79-1.37-1-2.14-.07-.25-.32-.2-.5-.18a1,1,0,0,0-.55.18c-.93,1-2.13,1.63-3,2.68a.69.69,0,0,0-.18.69,1.91,1.91,0,0,1-1,1.85c-.18.06-.27,0-.34-.16-.55-1.43-1.45-2.77-1.25-4.42,0-.25-.06-.32-.29-.24a3.65,3.65,0,0,1-.56.17c-.15,0-.39,0-.25-.23.37-.51-.11-.59-.35-.64a.92.92,0,0,1-.77-.64.54.54,0,0,0-.73-.26c-.8.29-1.58-.1-2.37,0-.17,0-.25-.13-.34-.27s-.35-.25-.62-.19a1.21,1.21,0,0,1-1.58-.81c-.1-.2-.26-.44-.44-.44-1,0-1-1.14-1.66-1.5-.16-.09,0-.31.06-.4.49-.4.1-.71-.16-.86a.7.7,0,0,1-.36-.81,1.22,1.22,0,0,0-.64-1.23c-.59-.41-1-1.06-1.58-1.47-.23-.15,0-1.1.32-1.34a.73.73,0,0,0,.31-.85c-.1-.35-.46-.3-.72-.28a1.2,1.2,0,0,1-1.21-.69c-.17-.29-.37-.48-.74-.28a.3.3,0,0,1-.41-.07c-.13-.2.07-.24.19-.33a.24.24,0,0,0,0-.43,1.42,1.42,0,0,1-.57-.91c0-.16-.19-.16-.37-.1-.48.17-.63-.09-.61-.53,0-.65-.19-1.38.66-1.72-.1-.63.53-1.06.58-1.51a5.36,5.36,0,0,0-.53-2.12c0-.14-.25-.28-.11-.42s.09-.48,0-.71c-.12-.53.39-1.09.83-.82.71.43,1.53.29,2.25.63a2.36,2.36,0,0,1,.8.51c.41.45.36.72-.21.95a1.27,1.27,0,0,1-1.07,0,7,7,0,0,0-1.49-.45,1,1,0,0,0,.48.55c.2.11.4.24.38.48-.06.85.55.76,1.07.82,0-.29-.29-.34-.32-.61.45-.18.81.44,1.25.16-.16-.59,0-.87.72-1s.86-.37.46-1.07a3.46,3.46,0,0,1-.15-.35l1.11.3a.78.78,0,0,1-.07.21c-.1.14-.39.18-.27.45s.3.21.5.21.44,0,.4-.35a.22.22,0,0,1,.17-.25c.67-.07,1.19-.62,1.9-.56h0c0,.4.1.43.45.24.52-.3,1.06-.64,1.68-.18.12.09.28.06.3-.1s.28-.33,0-.5a1.92,1.92,0,0,1-.57-.52c1,.47,2.14.31,3,1.05.14.12.35.37.53.13s0-.39-.19-.56a1,1,0,0,1,.06-1.58.86.86,0,0,0,.29-.34c.2-.57.63-.46,1-.36s.64.19.24.59a.46.46,0,0,0-.09.54c.28.55,0,1.19.3,1.77.12.21-.23.61-.53.8s-.45.23-.7.36c1.22.15,1.43,0,1.82-1.08.18-.52.5-.28.76-.17s.2.26.35.08,0-.32-.14-.42A1,1,0,0,0,351,40c-.56.09-.7-.05-.47-.54a.72.72,0,0,0,0-.73c-.14-.25-.19-.51.15-.63s.2.24.27.38c.21.37.51.37.87.26,0-.26-.61-.21-.3-.58a.47.47,0,0,1,.75-.1,1.21,1.21,0,0,0,1.46.2c-.12-.09-.19-.18-.28-.21-.26-.07-.63,0-.6-.43s.4-.63.77-.77a.38.38,0,0,1,.26,0,1.08,1.08,0,0,0,1.49-.6c.23-.39.66-.37,1.06-.48,1.18-.32,2.41-.29,3.59-.61a.5.5,0,0,0,.4-.36c.15-.5.58-.61,1-.67a.43.43,0,0,1,.55.28.75.75,0,0,0,1,.51,4.18,4.18,0,0,1,1.23,0,.81.81,0,0,1,.77.59c.15.36-.21.5-.43.62-.45.24-.95.41-1.42.62a1.73,1.73,0,0,0-1,.7,1.8,1.8,0,0,0,1-.26A3,3,0,0,1,364.8,37a6.1,6.1,0,0,1,2.49.56,1,1,0,0,0,1-.22c.16-.13.18-.43.47-.39a9,9,0,0,1,1.27.2c.25.07.29.34.29.6a1.52,1.52,0,0,0,.1.83c.14.23.27.47.58.44s.46-.1.49-.41.25-.24.43-.14c.65.38,1.35-.15,2,.1.05,0,.24-.11.24-.17.07-.85.74-.67,1.2-.64.66,0,1.31.19,2,.27.46.05.71.6,1.21.74a2.76,2.76,0,0,0,1.21.11,1.84,1.84,0,0,1,2,.71c.36.48.91.25,1.33.17s.95,0,1.42-.08a.39.39,0,0,1,.43.21c.15.26.37.41.7.2s-.18-.38,0-.59c2.25-.06,5.14,1.11,5.35,2.19.51-.73.92-.12,1.36.08Z"/><path class="cls-1" d="M375,75.36a4,4,0,0,1,0-.52c0-.2-.13-.51.14-.56s.38.3.39.45c.08.71.74,1.11.89,1.79a2.2,2.2,0,0,0,.82,1,7.11,7.11,0,0,1,1.9,2.51,3.35,3.35,0,0,1-.48,2.87,3.83,3.83,0,0,0-.68,1.5c0,.17,0,.33-.25.28A.92.92,0,0,0,377,85c-.05,0-.16.09-.17.08-.47-.58-1,.07-1.6-.16s-.86-.83-1.29-1.22a.36.36,0,0,1-.07-.24c0-.22,0-.46-.27-.53s-.31.17-.42.32-.22.27-.35,0a2,2,0,0,0-2.43-1c-.59.18-1.24.24-1.63.83-.11.16-.3.14-.48.14a2.74,2.74,0,0,0-1.68.31c-.3.21-.7,0-1-.14-.14,0-.29-.31-.07-.4.44-.18.23-.45.16-.69a4.2,4.2,0,0,0-.44-1.14,3.73,3.73,0,0,1-.28-2.32c0-.5.55-.7,1-.82l1.25-.31c.48-.12.87-.31.86-.93s.86-.25,1-.72.53-.7,1-.37c.26.16.39.13.48-.22.22-.8.78-1,1.62-.9s1.25.2.57,1a.18.18,0,0,0,.14.29c.45,0,.69.42,1,.61s.52.3.79.15.24-.43.24-.7S375,75.55,375,75.36Z"/><path class="cls-1" d="M373.61,73.17c.32-.73.23-.95-.48-1.19a4.2,4.2,0,0,0-.8-.22c-.22,0-.47-.13-.48-.27,0-.53-.49-.56-.83-.73.65-.53,1-.43,1.32.29.14.36.32.56.69.22a1.12,1.12,0,0,1,1.55-.08,14.29,14.29,0,0,0,1.94.87c.41.18.86.34.74,1,0,.07.06.15.1.23s.36.36.15.54-.43,0-.61-.21c-.64-.59-.64-.59-1.37,0a.32.32,0,0,1-.4,0A2.77,2.77,0,0,0,373.61,73.17Z"/><path class="cls-1" d="M365.45,71.84c-.5-.18-1-.32-1.51-.53-.3-.13-.46-.62-.66-1s.08-.45.19-.65.26,0,.38.06.21,0,.24-.1c.09-.42.41-.54.76-.7a1.76,1.76,0,0,0,.92-.77c.13-.27.38-.54.63-.23.12.15.81.4.13.81-.3.18,0,.56.05.82s.12.45-.16.65-.33.69-.47,1S365.76,71.77,365.45,71.84Z"/><path class="cls-1" d="M344.2,39c-.75.32-1-.69-1.66-.6.93-1.94,2.26-3.27,4.51-3.38a4.33,4.33,0,0,0,.93-.25c.2-.06.45-.24.55.07s-.22.34-.4.4a8.51,8.51,0,0,1-1.35.41,5.27,5.27,0,0,0-2.72,1.7C343.59,37.83,343.68,38.44,344.2,39Z"/><path class="cls-1" d="M358.31,68.29a2.12,2.12,0,0,1,1.29.76A4.79,4.79,0,0,0,361,70.1c.46.31.59.85,1.07,1.14.25.15,0,.72-.19,1s-.5,0-.69-.13a9,9,0,0,1-1.58-2,3.45,3.45,0,0,0-1.16-1.35C358.31,68.65,358.24,68.52,358.31,68.29Z"/><path class="cls-1" d="M367.46,65.75a3,3,0,0,0-.3-1.18c-.25-.36.06-.82.39-1.06s.56-.06.52.36c0,.26-.12.51-.12.76,0,.45,0,.88.66.9a.58.58,0,0,1,.58.51,1.16,1.16,0,0,1-.45.71c-.2.16-.37-.14-.54-.24a2.24,2.24,0,0,1-.45-.46Z"/><path class="cls-1" d="M358.45,31.4c.33,0,.64,0,.42.48s.2.51.45.52c.52,0,.46.37.42.68-.06.48-.37.2-.58.15-.59-.14-1.2-.25-1.46-.94-.08-.2-.3-.07-.46-.05s-.24-.09-.29-.21a.14.14,0,0,1,.11-.2C357.56,31.82,357.93,31.35,358.45,31.4Z"/><path class="cls-1" d="M372.66,57c.31-.16.64-.29.7-.7,0-.06.07-.14.11-.15,1.32-.22,1-1.32,1.15-2.14a1.35,1.35,0,0,1,.22,1.84,2.38,2.38,0,0,0-.28.65.8.8,0,0,1-.77.66,1.37,1.37,0,0,0-.83.28c-.32.28-.22-.14-.31-.25Z"/><path class="cls-1" d="M386.9,86.19c0,.33-.24.48-.41.67s-.67.55-.73,1.09c0,.33-.53.53-.88.64a.59.59,0,0,1-.56-.23c-.12-.19,0-.34.13-.46a1.35,1.35,0,0,1,.47-.51,2.14,2.14,0,0,0,1.1-1.5A1.31,1.31,0,0,0,386.9,86.19Z"/><path class="cls-1" d="M375.39,52.14c-.19-.08-.43-.11-.31-.4a3.67,3.67,0,0,0,.07-2.22,1.73,1.73,0,0,1,0-.39c0-.22,0-.51.26-.53s.3.33.28.49a3.43,3.43,0,0,0,.17,1c0,.32.52.74-.24.91-.2,0-.18.44-.07.71S375.67,52.1,375.39,52.14Z"/><path class="cls-1" d="M374.22,36.21c-.36,0-.59,0-.73-.26s0-.2.07-.29a.51.51,0,0,1,.62-.2c.53.21,1.08,0,1.61.1.13,0,.34-.06.36.16s-.21.19-.35.24C375.26,36.15,374.66,36,374.22,36.21Z"/><path class="cls-1" d="M387.16,84.17c.39.13.53.71,1.08.56.14,0,.21.2.08.27-.48.25-.49.87-1,1.17-.1-.46-.7-.78-.23-1.37.09-.12,0-.38,0-.57Z"/><path class="cls-1" d="M368,67.64c.27-.65,1.12-.33,1.4-.93.08.44.24.81-.19,1.17s-.42.38-.56-.06S368.21,67.87,368,67.64Z"/><path class="cls-1" d="M360.07,67.74c.94.29,1.13,1.09,1.28,1.92h-.28c-.47-.48-1.12-.84-1.06-1.65Z"/><path class="cls-1" d="M367.34,71.39c0,.34.22.9-.14,1s-.18-.49-.29-.76c-.31-.74-.08-.93.94-.87q0,.06,0,.12l-.08.34C367.6,71.22,367.4,71.17,367.34,71.39Z"/><path class="cls-1" d="M377.47,86.22c-.26.22.14.84-.51.86-.17,0-.85-.81-.75-.93.24-.27.64-.13,1-.23S377.52,85.94,377.47,86.22Z"/><path class="cls-1" d="M363.74,73,362.52,73c-.16,0-.32-.12-.32-.27s.24-.21.35-.15c.72.37,1.52.06,2.25.29l.09.11c0,.68-.44.27-.69.33C364.16,73,363.94,73,363.74,73Z"/><path class="cls-1" d="M376.31,53.51c-.5.3-.95.5-1.45.16C375.24,52.72,375.24,52.72,376.31,53.51Z"/><path class="cls-1" d="M360.07,67.74,360,68a1.4,1.4,0,0,1-.15-2.24A3.47,3.47,0,0,0,360.07,67.74Z"/><path class="cls-1" d="M361.75,33.41c-.57.3-1.18.19-1.78.47C360.7,32.87,361.05,32.78,361.75,33.41Z"/><path class="cls-1" d="M367.46,65.75l.28.29c-.36.06-.65.17-.72.6,0,.15-.19.28-.31.39s-.19.31-.35.15,0-.27.14-.37a1.14,1.14,0,0,0,.43-.69C366.95,65.73,367.19,65.74,367.46,65.75Z"/><path class="cls-1" d="M367.34,71.39c.07-.22.26-.17.42-.2.43.11.44.53.59.83.07.15-.09.27-.26.29s-.29-.08-.35-.28S367.8,71.4,367.34,71.39Z"/><path class="cls-1" d="M367.2,61.7a3.85,3.85,0,0,1,.11-.39c.08-.21.22-.43.47-.32s.08.36,0,.53a3.55,3.55,0,0,1-.2.32c-.08.14,0,.47-.26.41S367.26,61.92,367.2,61.7Z"/><path class="cls-1" d="M379,71.75c0,.87-.21.94-1.28.58A1.47,1.47,0,0,0,379,71.75Z"/><path class="cls-1" d="M370,73.41l-1.39.65C368.77,73.33,369,73.2,370,73.41Z"/><path class="cls-1" d="M372.66,57v.19c-.45.21-1,.15-1.37.55l-.09,0A1.2,1.2,0,0,1,372.66,57Z"/><path class="cls-1" d="M353.27,67.64c0,.23,0,.42-.21.4-.38,0-.3-.42-.39-.66s0-.31.16-.29C353.18,67.12,353.16,67.48,353.27,67.64Z"/><path class="cls-1" d="M376.76,36.09a2.42,2.42,0,0,1,1.55,0C377.71,36.52,377.23,36.1,376.76,36.09Z"/><path class="cls-1" d="M371.21,57.66l.09,0c.11.21.18.44,0,.63s-.24,0-.31-.11-.08-.43.18-.55Z"/><path class="cls-1" d="M375.6,37.22h-1.1A.76.76,0,0,1,375.6,37.22Z"/><path class="cls-1" d="M389.68,38.68c-.25.25-.47.35-.75.19a.12.12,0,0,1,0-.21C389.13,38.47,389.36,38.51,389.68,38.68Z"/><path class="cls-1" d="M365.39,73.48c-.11,0-.2,0-.23-.1s0-.12.11-.08l.24.07Z"/><path class="cls-1" d="M386.68,83.73c-.05-.11,0-.14.11-.14s.19.08.18.2,0,.19-.11.18S386.72,83.82,386.68,83.73Z"/><path class="cls-1" d="M367.84,70.86s0-.08,0-.12.29-.08.28.12S367.94,70.89,367.84,70.86Z"/><path class="cls-1" d="M363.74,73c.19,0,.42-.07.46.23A.66.66,0,0,1,363.74,73Z"/><path class="cls-1" d="M361.07,69.66h.28C361.26,69.91,361.17,69.89,361.07,69.66Z"/><path class="cls-1" d="M364.8,72.83c.08-.09.19-.14.25,0s-.08.11-.16.13Z"/><path class="cls-1" d="M343.13,40.38l0-.06,0,.05h-.06Z"/><path class="cls-1" d="M387.09,84.23c-.05,0-.1-.05-.07-.12l.13.07Z"/><path class="cls-1" d="M340.92,50.32c.08-.21.17-.19.28,0A.26.26,0,0,1,340.92,50.32Z"/><path class="cls-1" d="M363.49,118.49A58.5,58.5,0,0,1,340.73,6.11a58.5,58.5,0,0,1,45.53,107.78A58.12,58.12,0,0,1,363.49,118.49Zm0-116.5a58,58,0,1,0,58,58A58.09,58.09,0,0,0,363.49,2Z"/><path class="cls-1" d="M363.49,102.76a42.62,42.62,0,1,1,16.64-3.36A42.49,42.49,0,0,1,363.49,102.76Zm0-85A42.29,42.29,0,1,0,405.79,60,42.34,42.34,0,0,0,363.49,17.71Z"/><path class="cls-1" d="M310.36,44l.76-2.06L318,43.48v0l-6.24-3.33.76-2.06,9.19,3.37-.5,1.37-7-2.55v0l6.57,3.6-.44,1.21-7.34-1.5v0l7,2.55-.46,1.26Z"/><path class="cls-1" d="M315.6,32.22l1.08-1.78,9.19,3.73-.8,1.31-1.81-.77h0l-.91,1.49,1.49,1.24-.74,1.22Zm6.46,2-4.49-1.93v0l3.78,3.09Z"/><path class="cls-1" d="M320.41,25.2l1.51-1.71a2,2,0,0,1,3.2-.22l.45.4a1.84,1.84,0,0,1,.78,2l0,0a1.2,1.2,0,0,1,1-.14,3.45,3.45,0,0,1,1.19.74l1.29,1.14a6.53,6.53,0,0,0,.53.43,1.69,1.69,0,0,0,.48.23l-1,1.18a2.24,2.24,0,0,1-.41-.21,6.69,6.69,0,0,1-.59-.48l-1.34-1.18a1.52,1.52,0,0,0-.85-.46.92.92,0,0,0-.69.39l-.35.4,3.15,2.77-1,1.15Zm4.53,1.2a.92.92,0,0,0,.28-.68,1.12,1.12,0,0,0-.45-.7l-.57-.5a1.24,1.24,0,0,0-.7-.37.71.71,0,0,0-.57.29l-.46.52,2.1,1.85Z"/><path class="cls-1" d="M333.36,25.18a2.52,2.52,0,0,1-1.56-1l-3.29-4.1a2.52,2.52,0,0,1-.66-1.75,2.18,2.18,0,0,1,.92-1.55,2.18,2.18,0,0,1,1.71-.57,2.52,2.52,0,0,1,1.56,1l.65.81-1.13.91-.71-.88q-.57-.71-1.17-.23t0,1.19l3.43,4.26q.56.7,1.16.22t0-1.18l-.94-1.17,1.13-.91.87,1.08a2.52,2.52,0,0,1,.66,1.75,2.57,2.57,0,0,1-2.63,2.11Z"/><path class="cls-1" d="M335.81,12.1l1.82-1,6.13,7.79-1.35.74-1.18-1.57v0l-1.53.85.68,1.81-1.25.69ZM340.44,17l-2.94-3.9h0l1.75,4.56Z"/><path class="cls-1" d="M343.49,8.38l1.83-.62,3.29,5.07h0l-1.87-5.55,1.3-.44,3.13,9.27-1.5.5-4-6.18h0l2.28,6.77-1.3.44Z"/><path class="cls-1" d="M353.21,5.62l2.32-.34a2.24,2.24,0,0,1,1.79.36,2.56,2.56,0,0,1,.83,1.7l.71,4.9a2.55,2.55,0,0,1-.31,1.87,2.24,2.24,0,0,1-1.61.86l-2.32.34Zm3.51,8a.74.74,0,0,0,.54-.3,1.07,1.07,0,0,0,.1-.75l-.73-5a1.07,1.07,0,0,0-.31-.69.74.74,0,0,0-.61-.14l-.77.11,1,6.92Z"/><path class="cls-1" d="M363.13,14a2.56,2.56,0,0,1-.55-1.83L362.74,7a2.56,2.56,0,0,1,.65-1.8,2.66,2.66,0,0,1,3.47.1,2.56,2.56,0,0,1,.55,1.83l-.15,5.14a2.56,2.56,0,0,1-.65,1.8,2.66,2.66,0,0,1-3.47-.1Zm2.58-1.64L365.87,7q0-1-.77-1t-.82.94l-.16,5.34q0,1,.77,1T365.71,12.32Z"/><path class="cls-1" d="M378.2,6.65l4,1.25-.42,1.33-2.53-.79-.77,2.47,2,.63-.42,1.33-2-.63-.9,2.87,2.53.79-.42,1.33-4-1.25Z"/><path class="cls-1" d="M386.72,9.77l1.37.69L384.32,18l2.26,1.14L386,20.34l-3.63-1.83Z"/><path class="cls-1" d="M399.05,17.57l1.68,1.52a2.24,2.24,0,0,1,.86,1.61,2.56,2.56,0,0,1-.78,1.72l-.65.72a2.55,2.55,0,0,1-1.63,1,2.24,2.24,0,0,1-1.69-.7l-.54-.49-2.67,3-1.14-1Zm-1.27,4.79a.72.72,0,0,0,.56.22,1.06,1.06,0,0,0,.62-.4l.78-.86a1.06,1.06,0,0,0,.34-.66.72.72,0,0,0-.28-.54l-.54-.49-2,2.23Z"/><path class="cls-1" d="M398.76,30.34a2.56,2.56,0,0,1,1.06-1.59l4.05-3.17a2.56,2.56,0,0,1,1.8-.65,2.66,2.66,0,0,1,2.14,2.73,2.56,2.56,0,0,1-1.06,1.59l-4.05,3.17a2.56,2.56,0,0,1-1.8.65,2.66,2.66,0,0,1-2.14-2.73Zm2.91.93L405.88,28q.76-.59.27-1.22t-1.25,0L400.7,30q-.76.59-.27,1.22T401.68,31.28Z"/><path class="cls-1" d="M411.33,32.09l.73,1.35-7.37,4,1.21,2.22-1.23.67-1.94-3.57Z"/><path class="cls-1" d="M406.55,43.46a2.56,2.56,0,0,1,1.52-1.16l4.86-1.67a2.56,2.56,0,0,1,1.91,0A2.66,2.66,0,0,1,416,43.88,2.56,2.56,0,0,1,414.46,45l-4.86,1.67a2.56,2.56,0,0,1-1.91,0,2.66,2.66,0,0,1-1.13-3.28ZM409,45.3l5-1.74q.91-.31.65-1.07t-1.17-.44l-5,1.74q-.91.31-.65,1.07T409,45.3Z"/><path class="cls-1" d="M317.65,73.16l.41,1.29a1.15,1.15,0,0,1-.85,1.66l-.22.07a1.57,1.57,0,0,1-.73.08.84.84,0,0,1-.51-.3h0q0,.71-.93,1l-.47.15a1.22,1.22,0,0,1-1.7-.89l-.43-1.34ZM313.41,76a.45.45,0,0,0,.23.3.65.65,0,0,0,.45,0l.47-.15a.83.83,0,0,0,.48-.29.57.57,0,0,0,0-.47l-.12-.38-1.67.53Zm2.4-.93a.54.54,0,0,0,.25.34.66.66,0,0,0,.48,0l.3-.1a.72.72,0,0,0,.39-.24.42.42,0,0,0,0-.37l-.13-.41-1.44.46Z"/><path class="cls-1" d="M319.06,77.33l.35.83L314.89,80l.57,1.36-.75.31-.91-2.19Z"/><path class="cls-1" d="M315.95,83.65a1.49,1.49,0,0,1,.78-.8l2.66-1.39a1.49,1.49,0,0,1,1.1-.18,1.55,1.55,0,0,1,.94,1.79,1.49,1.49,0,0,1-.78.8L318,85.26a1.49,1.49,0,0,1-1.1.18,1.55,1.55,0,0,1-.94-1.79Zm1.57.84,2.76-1.44q.5-.26.28-.67t-.71-.15l-2.76,1.44q-.5.26-.28.67T317.52,84.49Z"/><path class="cls-1" d="M318.3,87.89A1.51,1.51,0,0,1,319,87l2.52-1.63a1.51,1.51,0,0,1,1.08-.29,1.52,1.52,0,0,1,1.08,1.67,1.51,1.51,0,0,1-.71.86l-.41.26-.46-.71.46-.3q.47-.3.22-.7t-.72-.09l-2.63,1.69q-.47.3-.21.69t.72.09l.94-.61-.24-.38.69-.44.7,1.09-1.57,1a1.51,1.51,0,0,1-1.08.29,1.52,1.52,0,0,1-1.08-1.67Z"/><path class="cls-1" d="M326.63,90.25l.9,1a1.31,1.31,0,0,1,.39,1,1.49,1.49,0,0,1-.57.94l-2.18,1.89a1.49,1.49,0,0,1-1,.44,1.31,1.31,0,0,1-.93-.52l-.9-1Zm-2.81,4.23a.43.43,0,0,0,.32.17.62.62,0,0,0,.4-.19l2.24-1.95a.62.62,0,0,0,.24-.37.43.43,0,0,0-.12-.34l-.3-.34-3.08,2.67Z"/><path class="cls-1" d="M329.59,93.53l1.76,1.7-.57.59-1.12-1.08-1,1.09.89.85-.57.59-.89-.85-1.22,1.26L328,98.75l-.57.59-1.76-1.7Z"/><path class="cls-1" d="M334.32,97.73l.73.53-2.13,3.93h0L336,99l.67.48-4.06,4.11-1-.7Z"/><path class="cls-1" d="M338,100.3l.76.47-3,4.85-.76-.47Z"/><path class="cls-1" d="M340.94,102l1.08.56-1.82,5.49-.8-.41.38-1.08h0l-.9-.47-.66.92-.74-.38Zm-.9,3.84,1-2.69h0l-1.65,2.32Z"/><path class="cls-1" d="M341.86,108.82l.32-.75a1.21,1.21,0,0,0,.26.14.53.53,0,0,0,.42,0,.57.57,0,0,0,.28-.33l1.7-4,.83.35-1.7,4a1.48,1.48,0,0,1-.7.84,1.29,1.29,0,0,1-1-.07A2.27,2.27,0,0,1,341.86,108.82Z"/><path class="cls-1" d="M347.32,104.87l2.32.77-.26.77-1.47-.49-.48,1.43,1.17.39-.26.77-1.17-.39-.55,1.66,1.47.49-.26.77-2.32-.77Z"/><path class="cls-1" d="M350.14,111.4a1.54,1.54,0,0,1-.08-1.11l.08-.32.82.2-.09.38q-.13.54.32.65a.44.44,0,0,0,.37-.05.65.65,0,0,0,.22-.4,1.21,1.21,0,0,0,0-.65,3,3,0,0,0-.43-.78,3.61,3.61,0,0,1-.55-1,1.8,1.8,0,0,1,0-.92,1.49,1.49,0,0,1,.58-.94,1.29,1.29,0,0,1,1.05-.13,1.24,1.24,0,0,1,.86.59,1.55,1.55,0,0,1,.07,1.11l-.05.23-.82-.2.07-.29a.66.66,0,0,0,0-.44.41.41,0,0,0-.29-.21q-.44-.1-.56.43a1.08,1.08,0,0,0,0,.6,3.19,3.19,0,0,0,.44.78,3.36,3.36,0,0,1,.55,1,2,2,0,0,1,0,1,1.53,1.53,0,0,1-.59,1A1.3,1.3,0,0,1,351,112,1.26,1.26,0,0,1,350.14,111.4Z"/><path class="cls-1" d="M357.74,107.34l1.32.12a1.31,1.31,0,0,1,1,.45,1.49,1.49,0,0,1,.23,1.08l-.05.56a1.49,1.49,0,0,1-.43,1,1.31,1.31,0,0,1-1,.26l-.42,0-.22,2.31-.89-.08Zm1.07,2.68a.42.42,0,0,0,.34-.09.62.62,0,0,0,.15-.4l.06-.67a.62.62,0,0,0-.07-.42.42.42,0,0,0-.32-.15l-.42,0-.16,1.75Z"/><path class="cls-1" d="M362.2,113.06a1.49,1.49,0,0,1-.33-1.07l0-3a1.49,1.49,0,0,1,.37-1.05,1.55,1.55,0,0,1,2,0,1.5,1.5,0,0,1,.33,1.07l0,3a1.49,1.49,0,0,1-.37,1.05,1.55,1.55,0,0,1-2,0Zm1.49-1,.05-3.11q0-.56-.46-.57t-.47.56l-.05,3.12q0,.56.46.57T363.69,112.09Z"/><path class="cls-1" d="M366.32,107.6l1.32-.11a1.15,1.15,0,0,1,1.44,1.19l0,.35a1.07,1.07,0,0,1-.49,1.17v0a.7.7,0,0,1,.49.36,2,2,0,0,1,.2.79l.09,1a3.81,3.81,0,0,0,.05.39,1,1,0,0,0,.11.29l-.91.08a1.3,1.3,0,0,1-.09-.25,3.91,3.91,0,0,1-.05-.44l-.09-1a.89.89,0,0,0-.17-.53.54.54,0,0,0-.45-.12l-.31,0,.21,2.44-.89.08Zm1.43,2.33a.54.54,0,0,0,.39-.17.66.66,0,0,0,.09-.47l0-.44a.72.72,0,0,0-.15-.44.42.42,0,0,0-.36-.11l-.41,0,.14,1.63Z"/><path class="cls-1" d="M373.81,106.55l1.18-.28,2.21,5.35-.87.2-.42-1.07v0l-1,.23.1,1.13-.81.19Zm1.82,3.49-1-2.66h0l.26,2.84Z"/><path class="cls-1" d="M379.22,110.73a1.54,1.54,0,0,1-.65-.91l-.1-.31.81-.27.12.37q.17.53.62.38a.44.44,0,0,0,.29-.24.65.65,0,0,0,0-.45,1.21,1.21,0,0,0-.35-.55,3,3,0,0,0-.78-.43,3.61,3.61,0,0,1-1-.6,1.8,1.8,0,0,1-.49-.78,1.49,1.49,0,0,1,0-1.1,1.29,1.29,0,0,1,.83-.66,1.24,1.24,0,0,1,1,0,1.55,1.55,0,0,1,.65.91l.07.22-.81.27-.09-.28a.66.66,0,0,0-.24-.37.41.41,0,0,0-.36,0q-.43.14-.25.66a1.08,1.08,0,0,0,.34.5,3.19,3.19,0,0,0,.78.43,3.36,3.36,0,0,1,1,.6,2,2,0,0,1,.5.82,1.53,1.53,0,0,1,0,1.13,1.3,1.3,0,0,1-.84.67A1.26,1.26,0,0,1,379.22,110.73Z"/><path class="cls-1" d="M381.28,104.24l.83-.34,2.18,5.28-.83.34Z"/><path class="cls-1" d="M384.39,102.86l1.08-.55,3.4,4.68-.8.4-.66-.94h0l-.91.46.36,1.07-.74.37Zm2.59,3-1.63-2.34h0l.92,2.7Z"/><path class="cls-1" d="M392.31,102,389.54,100l.78-.55,1.7,1.37h0l-.7-2.07.71-.5,1,3.31,1.39,2-.73.51Z"/><path class="cls-1" d="M399.06,99.42a1.49,1.49,0,0,1-1-.53L396,96.7a1.49,1.49,0,0,1-.47-1A1.55,1.55,0,0,1,397,94.3a1.49,1.49,0,0,1,1,.53L400.07,97a1.49,1.49,0,0,1,.47,1,1.55,1.55,0,0,1-1.48,1.38Zm.39-1.74-2.13-2.27q-.38-.41-.72-.09t0,.73l2.13,2.27q.38.41.72.09T399.45,97.68Z"/><path class="cls-1" d="M402.51,96a1.47,1.47,0,0,1-1-.44l-2.29-2a1.47,1.47,0,0,1-.55-.94A1.5,1.5,0,0,1,400,91.13a1.47,1.47,0,0,1,1,.44l.45.4-.56.63-.49-.44q-.4-.35-.69,0t.1.69L402.16,95q.39.35.69,0t-.09-.68l-.65-.58.56-.63.6.54a1.47,1.47,0,0,1,.55.94A1.5,1.5,0,0,1,402.51,96Z"/><path class="cls-1" d="M401,89.4l1.46-2,.65.49-.93,1.24,1.21.9.74-1,.65.49-.74,1,1.4,1,.93-1.24.65.49-1.46,2Z"/><path class="cls-1" d="M403.77,85.51l.64-1,5.35,2.21-.47.76L408.24,87h0l-.54.87.87.73-.44.71Zm3.76,1.17-2.61-1.14h0l2.2,1.81Z"/><path class="cls-1" d="M405.63,82.35l.5-1,3.45.73h0l-3.06-1.51.35-.72L412,82.35l-.41.83-4.21-.88h0l3.74,1.85-.35.72Z"/><path class="cls-1" d="M406.55,77.18l.36-.91.55,1.16-.25.63Zm1,1,.33-.83,5.3,2.13-.33.83Z"/><path class="cls-1" d="M408.77,75l.37-1.16,5.72.84-.27.86-1.13-.19h0l-.31,1,1,.49-.25.79Zm3.93.22-2.81-.47v0L412.46,76Z"/><path class="cls-1" d="M313.59,56.05a.53.53,0,0,0-1,0,2,2,0,0,0-.21.91v1l-2.68,1.64a.13.13,0,0,0-.07.12v.83a.14.14,0,0,0,.06.12.16.16,0,0,0,.13,0l2.56-.74v1.68l-.8.46,0,0a.14.14,0,0,0,0,.1v.63a.16.16,0,0,0,.05.11.14.14,0,0,0,.12,0l1.43-.2,1.43.2a.16.16,0,0,0,.12,0h0a.14.14,0,0,0,0-.1v-.62a.14.14,0,0,0-.07-.13l-.8-.46V60l2.56.74a.13.13,0,0,0,.12,0l0,0a.13.13,0,0,0,0-.08l.1-.73a.14.14,0,0,0-.07-.15L313.8,58V57a2,2,0,0,0-.21-.91Z"/><path class="cls-1" d="M413.21,63.95a.53.53,0,0,0,1,0,2,2,0,0,0,.21-.91V62l2.68-1.64a.13.13,0,0,0,.07-.12V59.4a.14.14,0,0,0-.06-.12.16.16,0,0,0-.13,0l-2.56.74V58.32l.8-.46,0,0a.14.14,0,0,0,0-.1v-.63a.16.16,0,0,0-.05-.11.14.14,0,0,0-.12,0l-1.43.2L412.3,57a.16.16,0,0,0-.12,0h0a.14.14,0,0,0,0,.1v.62a.14.14,0,0,0,.07.13l.8.46V60l-2.56-.74a.13.13,0,0,0-.12,0l0,0a.13.13,0,0,0,0,.08l-.1.73a.14.14,0,0,0,.07.15L413,62v1a2,2,0,0,0,.21.91Z"/><path class="cls-1" d="M446.28,30.56h7.88l3.51,25.14h.1l3.51-25.14h7.88V65.69h-5.22V39.09h-.1l-4,26.6h-4.62l-4-26.6h-.1v26.6h-4.82Z"/><path class="cls-1" d="M482.56,30.56H490l5.72,35.13h-5.52l-1-7v.1H483l-1,6.87h-5.12Zm6,23.49-2.46-17.36H486L483.61,54Z"/><path class="cls-1" d="M503.44,30.56h8.18q4.27,0,6.22,2t2,6.1V40.8q0,5.47-3.61,6.93v.1A4.31,4.31,0,0,1,519,50.28a12.39,12.39,0,0,1,.83,5v6.17a23.56,23.56,0,0,0,.1,2.43,6.09,6.09,0,0,0,.5,1.83h-5.62a8,8,0,0,1-.4-1.61,24.13,24.13,0,0,1-.1-2.71V55a5.46,5.46,0,0,0-.78-3.36,3.29,3.29,0,0,0-2.68-1H509V65.69h-5.52ZM511,45.62a3.31,3.31,0,0,0,2.48-.85,4,4,0,0,0,.83-2.86V39.19a4.46,4.46,0,0,0-.68-2.76,2.56,2.56,0,0,0-2.13-.85H509v10Z"/><path class="cls-1" d="M530.41,63.93a9.05,9.05,0,0,1-2.08-6.37V38.69a9.06,9.06,0,0,1,2.08-6.37,9.22,9.22,0,0,1,12.09,0,9.06,9.06,0,0,1,2.08,6.37v3.71h-5.22V38.34q0-3.26-2.76-3.26t-2.76,3.26V58q0,3.21,2.76,3.21T539.36,58V52.59h5.22v5a9.05,9.05,0,0,1-2.08,6.37,9.22,9.22,0,0,1-12.09,0Z"/><path class="cls-1" d="M557.18,30.56h7.48l5.72,35.13h-5.52l-1-7v.1h-6.27l-1,6.87h-5.12Zm6,23.49-2.46-17.36h-.1L558.23,54Z"/><path class="cls-1" d="M578.05,30.56H585l5.37,21h.1v-21h4.92V65.69H589.7L583.07,40H583V65.69h-4.92Z"/><path class="cls-1" d="M604.5,30.56h8.43q4.11,0,6.17,2.21t2.06,6.47V57q0,4.27-2.06,6.47t-6.17,2.21H604.5Zm8.33,30.11a2.67,2.67,0,0,0,2.08-.8,3.83,3.83,0,0,0,.73-2.61V39a3.83,3.83,0,0,0-.73-2.61,2.67,2.67,0,0,0-2.08-.8H610V60.67Z"/><path class="cls-1" d="M631.65,63.88a9.19,9.19,0,0,1-2.16-6.52V38.89a9.19,9.19,0,0,1,2.16-6.52,9.54,9.54,0,0,1,12.45,0,9.19,9.19,0,0,1,2.16,6.52V57.36a9.19,9.19,0,0,1-2.16,6.52,9.54,9.54,0,0,1-12.45,0Zm9.08-6.17V38.54q0-3.46-2.86-3.46T635,38.54V57.71q0,3.46,2.86,3.46T640.73,57.71Z"/><path class="cls-1" d="M668,30.56h15.05v5h-9.53v9.28h7.58v5h-7.58V60.67h9.53v5H668Z"/><path class="cls-1" d="M691.26,30.56h5.52V60.67h9.08v5h-14.6Z"/><path class="cls-1" d="M726.59,30.56h8.13q4.11,0,6.17,2.21t2.06,6.47v3.46q0,4.27-2.06,6.47t-6.17,2.21h-2.61v14.3h-5.52Zm8.13,15.81a2.6,2.6,0,0,0,2-.75,3.82,3.82,0,0,0,.68-2.56V38.89a3.82,3.82,0,0,0-.68-2.56,2.6,2.6,0,0,0-2-.75h-2.61V46.37Z"/><path class="cls-1" d="M752.73,63.88a9.19,9.19,0,0,1-2.16-6.52V38.89a9.19,9.19,0,0,1,2.16-6.52,9.54,9.54,0,0,1,12.45,0,9.19,9.19,0,0,1,2.16,6.52V57.36a9.19,9.19,0,0,1-2.16,6.52,9.54,9.54,0,0,1-12.45,0Zm9.08-6.17V38.54q0-3.46-2.86-3.46t-2.86,3.46V57.71q0,3.46,2.86,3.46T761.82,57.71Z"/><path class="cls-1" d="M776.07,30.56h5.52V60.67h9.08v5h-14.6Z"/><path class="cls-1" d="M799.9,63.88a9.19,9.19,0,0,1-2.16-6.52V38.89a9.19,9.19,0,0,1,2.16-6.52,9.54,9.54,0,0,1,12.45,0,9.19,9.19,0,0,1,2.16,6.52V57.36a9.19,9.19,0,0,1-2.16,6.52,9.54,9.54,0,0,1-12.45,0ZM809,57.71V38.54q0-3.46-2.86-3.46t-2.86,3.46V57.71q0,3.46,2.86,3.46T809,57.71Z"/><path class="cls-1" d="M445.21,72.9h4a3.38,3.38,0,0,1,3.91,3.86v.67a4.61,4.61,0,0,1-.42,2.11,2.46,2.46,0,0,1-1.28,1.18v0q2,.67,2,3.5v1.44a3.58,3.58,0,0,1-4,4h-4.15Zm3.67,6.84a1.58,1.58,0,0,0,1.19-.41,1.93,1.93,0,0,0,.4-1.37V77a2.13,2.13,0,0,0-.32-1.32,1.22,1.22,0,0,0-1-.41h-1.27v4.44Zm.48,7.56a1.32,1.32,0,0,0,1-.37,1.92,1.92,0,0,0,.34-1.28V84.18a2.43,2.43,0,0,0-.4-1.6,1.67,1.67,0,0,0-1.31-.44h-1.18V87.3Z"/><path class="cls-1" d="M458.36,72.9H461V87.3h4.34v2.4h-7Z"/><path class="cls-1" d="M470.81,88.83a4.39,4.39,0,0,1-1-3.12V76.88a4.39,4.39,0,0,1,1-3.12,4.56,4.56,0,0,1,6,0,4.39,4.39,0,0,1,1,3.12v8.83a4.39,4.39,0,0,1-1,3.12,4.56,4.56,0,0,1-6,0Zm4.34-3V76.72q0-1.66-1.37-1.66t-1.37,1.66v9.17q0,1.66,1.37,1.66T475.16,85.88Z"/><path class="cls-1" d="M483.85,88.85a4.45,4.45,0,0,1-1-3.13V76.88a4.46,4.46,0,0,1,1-3.13,4.47,4.47,0,0,1,5.86,0,4.46,4.46,0,0,1,1,3.13v1.44h-2.5V76.72q0-1.66-1.37-1.66t-1.37,1.66v9.19q0,1.63,1.37,1.63t1.37-1.63V82.62h-1.32v-2.4h3.82v5.5a4.45,4.45,0,0,1-1,3.13,4.47,4.47,0,0,1-5.86,0Z"/><path class="cls-1" d="M503.16,72.9h4a3.84,3.84,0,0,1,3,1.06,4.39,4.39,0,0,1,1,3.1v8.5a4.39,4.39,0,0,1-1,3.1,3.84,3.84,0,0,1-3,1.06h-4Zm4,14.4a1.28,1.28,0,0,0,1-.38,1.83,1.83,0,0,0,.35-1.25V76.93a1.83,1.83,0,0,0-.35-1.25,1.28,1.28,0,0,0-1-.38H505.8v12Z"/><path class="cls-1" d="M516.36,72.9h7.2v2.4H519v4.44h3.62v2.4H519V87.3h4.56v2.4h-7.2Z"/><path class="cls-1" d="M535.13,72.9h2.66l1.73,13h0l1.73-13h2.42l-2.54,16.8h-3.5Z"/><path class="cls-1" d="M548.45,72.9h2.64V89.7h-2.64Z"/><path class="cls-1" d="M558.56,72.9h3.58l2.74,16.8h-2.64l-.48-3.34v0h-3l-.48,3.29h-2.45Zm2.88,11.23-1.18-8.3h0l-1.15,8.3Z"/><path class="cls-1" d="M569,89.7V87.3a3.58,3.58,0,0,0,.86.1A1.57,1.57,0,0,0,571,87a1.68,1.68,0,0,0,.38-1.21V72.9h2.64V85.72a4.35,4.35,0,0,1-.95,3.07,3.79,3.79,0,0,1-2.89,1A6.68,6.68,0,0,1,569,89.7Z"/><path class="cls-1" d="M579.41,72.9h7.2v2.4h-4.56v4.44h3.62v2.4h-3.62V87.3h4.56v2.4h-7.2Z"/><path class="cls-1" d="M592.15,88.85a4.52,4.52,0,0,1-1-3.13v-1h2.5v1.15q0,1.63,1.37,1.63a1.28,1.28,0,0,0,1-.4,1.92,1.92,0,0,0,.35-1.28,3.56,3.56,0,0,0-.48-1.86,8.87,8.87,0,0,0-1.78-1.93,10.61,10.61,0,0,1-2.28-2.6,5.3,5.3,0,0,1-.65-2.63,4.38,4.38,0,0,1,1-3.08,3.79,3.79,0,0,1,2.93-1.09A3.64,3.64,0,0,1,598,73.75a4.56,4.56,0,0,1,1,3.13v.7h-2.5v-.86a1.93,1.93,0,0,0-.34-1.26,1.22,1.22,0,0,0-1-.4q-1.32,0-1.32,1.61a3.17,3.17,0,0,0,.49,1.7,9.34,9.34,0,0,0,1.79,1.92,9.89,9.89,0,0,1,2.28,2.62,5.81,5.81,0,0,1,.62,2.76,4.5,4.5,0,0,1-1,3.17,3.83,3.83,0,0,1-3,1.1A3.71,3.71,0,0,1,592.15,88.85Z"/><path class="cls-1" d="M611.31,72.9h3.89a3.85,3.85,0,0,1,3,1.06,4.39,4.39,0,0,1,1,3.1v1.66a4.39,4.39,0,0,1-1,3.1,3.85,3.85,0,0,1-3,1.06h-1.25V89.7h-2.64Zm3.89,7.56a1.24,1.24,0,0,0,1-.36,1.83,1.83,0,0,0,.32-1.22v-2a1.83,1.83,0,0,0-.32-1.22,1.24,1.24,0,0,0-1-.36h-1.25v5.16Z"/><path class="cls-1" d="M624.87,88.83a4.39,4.39,0,0,1-1-3.12V76.88a4.39,4.39,0,0,1,1-3.12,4.56,4.56,0,0,1,6,0,4.39,4.39,0,0,1,1,3.12v8.83a4.39,4.39,0,0,1-1,3.12,4.56,4.56,0,0,1-6,0Zm4.34-3V76.72q0-1.66-1.37-1.66t-1.37,1.66v9.17q0,1.66,1.37,1.66T629.21,85.88Z"/><path class="cls-1" d="M637.08,72.9H641a3.38,3.38,0,0,1,3.91,3.86v1q0,2.62-1.73,3.31v0a2.07,2.07,0,0,1,1.36,1.18,5.94,5.94,0,0,1,.4,2.38v3a11.31,11.31,0,0,0,0,1.16,2.89,2.89,0,0,0,.24.88h-2.69a3.79,3.79,0,0,1-.19-.77,11.56,11.56,0,0,1,0-1.3V84.56a2.6,2.6,0,0,0-.37-1.61,1.58,1.58,0,0,0-1.28-.46h-.91v7.2h-2.64Zm3.6,7.2a1.58,1.58,0,0,0,1.19-.41,1.93,1.93,0,0,0,.4-1.37V77a2.14,2.14,0,0,0-.32-1.32,1.23,1.23,0,0,0-1-.41h-1.2v4.8Z"/><path class="cls-1" d="M659.55,72.9h3.58l2.74,16.8h-2.64l-.48-3.34v0h-3l-.48,3.29h-2.45Zm2.88,11.23-1.18-8.3h0L660,84.13Z"/><path class="cls-1" d="M671,88.85a4.52,4.52,0,0,1-1-3.13v-1h2.5v1.15q0,1.63,1.37,1.63a1.28,1.28,0,0,0,1-.4,1.92,1.92,0,0,0,.35-1.28,3.56,3.56,0,0,0-.48-1.86A8.87,8.87,0,0,0,673,82.07a10.61,10.61,0,0,1-2.28-2.6,5.3,5.3,0,0,1-.65-2.63,4.38,4.38,0,0,1,1-3.08A3.79,3.79,0,0,1,674,72.66a3.64,3.64,0,0,1,2.87,1.09,4.56,4.56,0,0,1,1,3.13v.7h-2.5v-.86a1.93,1.93,0,0,0-.34-1.26,1.22,1.22,0,0,0-1-.4q-1.32,0-1.32,1.61a3.17,3.17,0,0,0,.49,1.7A9.34,9.34,0,0,0,675,80.29a9.89,9.89,0,0,1,2.28,2.62,5.81,5.81,0,0,1,.62,2.76,4.5,4.5,0,0,1-1,3.17,3.83,3.83,0,0,1-3,1.1A3.71,3.71,0,0,1,671,88.85Z"/><path class="cls-1" d="M682.9,72.9h2.64V89.7H682.9Z"/><path class="cls-1" d="M693,72.9h3.58l2.74,16.8h-2.64l-.48-3.34v0h-3l-.48,3.29h-2.45Zm2.88,11.23-1.18-8.3h0l-1.15,8.3Z"/><path class="cls-1" d="M713.76,82.55l-3.19-9.65h2.81l1.8,6.17h0L717,72.9h2.57l-3.19,9.65V89.7h-2.64Z"/><path class="cls-1" d="M732.38,88.83a4.39,4.39,0,0,1-1-3.12V76.88a4.39,4.39,0,0,1,1-3.12,4.56,4.56,0,0,1,6,0,4.39,4.39,0,0,1,1,3.12v8.83a4.39,4.39,0,0,1-1,3.12,4.56,4.56,0,0,1-6,0Zm4.34-3V76.72q0-1.66-1.37-1.66T734,76.72v9.17q0,1.66,1.37,1.66T736.73,85.88Z"/><path class="cls-1" d="M745.43,88.86a4.33,4.33,0,0,1-1-3v-9a4.33,4.33,0,0,1,1-3,4.41,4.41,0,0,1,5.78,0,4.33,4.33,0,0,1,1,3v1.78h-2.5V76.62q0-1.56-1.32-1.56t-1.32,1.56V86q0,1.54,1.32,1.54T749.71,86V83.43h2.5v2.38a4.33,4.33,0,0,1-1,3,4.41,4.41,0,0,1-5.78,0Z"/><path class="cls-1" d="M757.25,72.9h7.2v2.4h-4.56v4.44h3.62v2.4h-3.62V87.3h4.56v2.4h-7.2Z"/><path class="cls-1" d="M771.46,72.9H775l2.74,16.8h-2.64l-.48-3.34v0h-3l-.48,3.29h-2.45Zm2.88,11.23-1.18-8.3h0L772,84.13Z"/><path class="cls-1" d="M782.49,72.9h3.31L788.37,83h0V72.9h2.35V89.7h-2.71l-3.17-12.26h0V89.7h-2.35Z"/><path class="cls-1" d="M797.76,69h2.88l-2.57,2.76h-2ZM796.2,72.9h2.64V89.7H796.2Z"/><path class="cls-1" d="M806.3,72.9h3.58l2.74,16.8H810l-.48-3.34v0h-3L806,89.7h-2.45Zm2.88,11.23L808,75.83h0l-1.15,8.3Z"/></svg>